<svg width="54" height="44" viewBox="0 0 54 44" fill="none" xmlns="http://www.w3.org/2000/svg">
<g filter="url(#filter0_d)">
<path d="M43.7575 4.5771C39.0724 4.5771 39.0363 4.5771 37.5227 8.92126C35.9009 13.5526 34.2431 18.1481 32.6934 22.8154C32.1167 24.4669 31.1797 25.1849 29.3777 25.149C23.6114 25.0772 17.8451 25.0772 12.0788 25.149C10.2768 25.1849 9.3758 24.5028 8.83521 22.7795C7.39363 17.825 5.80789 12.9423 4.25819 8.02371C3.68156 6.15679 4.07799 4.97202 5.37541 4.613C6.74492 4.25398 7.60986 4.93612 8.22254 6.87484C9.556 11.0754 10.9255 15.3118 12.1508 19.5483C12.4752 20.6613 12.9437 21.0562 14.133 21.0562C18.5298 20.9844 22.8906 20.9844 27.2875 21.0562C28.5128 21.0921 29.0894 20.6613 29.4859 19.5124C31.3599 13.9835 33.3781 8.49043 35.2522 2.9256C35.8649 1.09459 36.8379 0.304741 38.7841 0.376545C41.5951 0.484252 44.4423 0.376545 47.2534 0.412447C49.0553 0.412447 50.1005 1.20229 49.9924 2.53067C49.8482 4.25398 48.6229 4.613 47.1813 4.5771C46.028 4.5771 44.9108 4.5771 43.7575 4.5771Z" fill="white"/>
<path d="M30.0255 27.8779C32.1518 27.8779 33.8096 29.4935 33.8096 31.5759C33.8096 33.6223 32.1158 35.3456 30.0615 35.3456C28.0433 35.3456 26.2773 33.6223 26.2773 31.6118C26.2773 29.5653 27.9352 27.9138 30.0255 27.8779Z" fill="white"/>
<path d="M15.5383 31.5396C15.5744 33.6219 13.9165 35.3452 11.8623 35.3811C9.80802 35.417 8.07812 33.6937 8.07812 31.6114C8.07812 29.565 9.62783 27.9494 11.6821 27.9135C13.8445 27.8417 15.5023 29.4214 15.5383 31.5396Z" fill="white"/>
</g>
<defs>
<filter id="filter0_d" x="0" y="0.37207" width="54" height="43.0096" filterUnits="userSpaceOnUse" color-interpolation-filters="sRGB">
<feFlood flood-opacity="0" result="BackgroundImageFix"/>
<feColorMatrix in="SourceAlpha" type="matrix" values="0 0 0 0 0 0 0 0 0 0 0 0 0 0 0 0 0 0 127 0"/>
<feOffset dy="4"/>
<feGaussianBlur stdDeviation="2"/>
<feColorMatrix type="matrix" values="0 0 0 0 0 0 0 0 0 0 0 0 0 0 0 0 0 0 0.25 0"/>
<feBlend mode="normal" in2="BackgroundImageFix" result="effect1_dropShadow"/>
<feBlend mode="normal" in="SourceGraphic" in2="effect1_dropShadow" result="shape"/>
</filter>
</defs>
</svg>
